<svg version="1.1" id="Layer_1" xmlns="http://www.w3.org/2000/svg" xmlns:xlink="http://www.w3.org/1999/xlink" x="300px" y="0px"
	 width="900px" height="900px" viewBox="0 0 392 400" enable-background="FALSE" xml:space="preserve">
<path fill="#000000" opacity="000000" stroke="none"
	  d="M368.000000,401.000000
        C306.685867,401.000000 245.871731,401.000000 185.028799,401.000000
        C185.028799,267.727966 185.028799,134.455902 185.028799,1.091920
        C315.564087,1.091920 446.128265,1.091920 576.846222,1.091920
        C576.846222,134.333191 576.846222,267.666565 576.846222,401.000000
        C507.455963,401.000000 437.977982,401.000000 368.000000,401.000000
    M97.352089,280.159363
        C117.002861,295.198029 141.590744,289.465179 152.674500,267.319489
        C159.051697,254.577606 165.546783,241.894745 172.285324,228.600296
        C179.156601,242.223236 185.643066,255.247604 192.279877,268.194885
        C198.823196,280.959747 209.238159,288.173309 223.688080,288.421875
        C237.882034,288.666107 248.926102,282.366119 255.428940,269.737335
        C273.287018,235.056259 290.926514,200.259857 308.311432,165.339264
        C315.898804,150.098755 310.720703,131.720093 296.892487,121.813957
        C283.020264,111.876297 264.075775,112.924461 252.127701,125.066483
        C247.922272,129.340195 244.912521,134.961258 242.027130,140.327545
        C236.023148,151.493759 230.466660,162.900620 224.453964,174.744965
        C223.484741,173.096436 222.852325,172.141281 222.337341,171.126526
        C216.174072,158.981766 210.126648,146.777084 203.850830,134.690918
        C197.283966,122.044197 186.497635,115.231850 172.484573,115.178810
        C158.289291,115.125092 147.288071,121.808716 140.697830,134.752335
        C123.443275,168.641327 106.209724,202.541214 89.070206,236.488449
        C81.293442,251.891418 84.261826,267.826447 97.352089,280.159363
    z"/>
<path fill="#F9F9F9" opacity="1.000000" stroke="none" 
	d="
M97.088272,279.919495 
	C84.261826,267.826447 81.293442,251.891418 89.070206,236.488449 
	C106.209724,202.541214 123.443275,168.641327 140.697830,134.752335 
	C147.288071,121.808716 158.289291,115.125092 172.484573,115.178810 
	C186.497635,115.231850 197.283966,122.044197 203.850830,134.690918 
	C210.126648,146.777084 216.174072,158.981766 222.337341,171.126526 
	C222.852325,172.141281 223.484741,173.096436 224.453964,174.744965 
	C230.466660,162.900620 236.023148,151.493759 242.027130,140.327545 
	C244.912521,134.961258 247.922272,129.340195 252.127701,125.066483 
	C264.075775,112.924461 283.020264,111.876297 296.892487,121.813957 
	C310.720703,131.720093 315.898804,150.098755 308.311432,165.339264 
	C290.926514,200.259857 273.287018,235.056259 255.428940,269.737335 
	C248.926102,282.366119 237.882034,288.666107 223.688080,288.421875 
	C209.238159,288.173309 198.823196,280.959747 192.279877,268.194885 
	C185.643066,255.247604 179.156601,242.223236 172.285324,228.600296 
	C165.546783,241.894745 159.051697,254.577606 152.674500,267.319489 
	C141.590744,289.465179 117.002861,295.198029 97.088272,279.919495 
M297.480865,145.443497 
	C294.065643,135.376160 287.314056,129.558655 278.351807,129.006836 
	C267.800568,128.357193 260.678802,133.228943 256.051025,142.526215 
	C248.799271,157.095139 241.445343,171.615585 233.908325,186.038254 
	C232.271759,189.169922 232.410004,191.610046 234.003876,194.634003 
	C239.732834,205.503342 245.216370,216.501923 250.812469,227.441513 
	C252.520370,230.780182 254.291931,234.086273 256.202759,237.728333 
	C257.006378,236.471115 257.517456,235.805466 257.889801,235.069611 
	C270.116394,210.905853 282.265198,186.702377 294.595764,162.591827 
	C297.273071,157.356842 298.615906,152.068802 297.480865,145.443497 
M135.167694,175.665100 
	C123.831284,198.043747 112.428001,220.388855 101.186264,242.814957 
	C95.433029,254.292068 99.633881,267.297943 110.564537,272.706024 
	C121.407616,278.070770 133.982025,273.776398 139.769608,262.527130 
	C147.599060,247.309082 155.311066,232.029922 162.939850,216.710434 
	C163.669113,215.245987 164.198303,212.943100 163.561188,211.649734 
	C156.055603,196.412704 148.309616,181.294083 140.360428,165.618729 
	C138.540863,169.150574 137.032089,172.079193 135.167694,175.665100 
M228.302490,213.202484 
	C227.088776,210.817383 225.875061,208.432297 224.228836,205.197296 
	C217.126968,219.441040 209.931946,232.546143 204.146759,246.246597 
	C202.305344,250.607452 202.940796,257.018860 204.655121,261.678009 
	C208.887604,273.180756 221.980881,277.886139 233.182465,272.969635 
	C244.179077,268.143097 249.163879,255.144775 243.898056,244.059601 
	C239.059830,233.874557 233.779068,223.899734 228.302490,213.202484 
M185.235458,133.152344 
	C177.534012,127.795570 169.389603,127.250008 161.354233,131.895691 
	C153.454926,136.462708 149.989746,143.731903 150.827621,152.864700 
	C151.006287,154.812134 151.397461,156.873627 152.253616,158.604080 
	C158.774384,171.784073 165.434906,184.894913 172.255814,198.431915 
	C178.651962,185.823563 184.778427,173.882217 190.779327,161.878098 
	C196.354614,150.725327 194.796997,142.167755 185.235458,133.152344 
M184.942551,223.607864 
	C187.335846,228.191696 189.729141,232.775543 192.462936,238.011536 
	C200.467484,222.201447 208.070282,207.268127 215.537628,192.267365 
	C216.095886,191.145920 216.178375,189.303192 215.644867,188.200974 
	C212.063049,180.800858 208.254562,173.510498 204.196671,165.551285 
	C197.493927,178.786560 191.551056,191.763748 184.443527,204.068192 
	C180.476303,210.936172 179.795410,216.675323 184.942551,223.607864 
z"/>
<path fill="#020202" opacity="1.000000" stroke="none" 
	d="
M297.590698,145.846542 
	C298.615906,152.068802 297.273071,157.356842 294.595764,162.591827 
	C282.265198,186.702377 270.116394,210.905853 257.889801,235.069611 
	C257.517456,235.805466 257.006378,236.471115 256.202759,237.728333 
	C254.291931,234.086273 252.520370,230.780182 250.812469,227.441513 
	C245.216370,216.501923 239.732834,205.503342 234.003876,194.634003 
	C232.410004,191.610046 232.271759,189.169922 233.908325,186.038254 
	C241.445343,171.615585 248.799271,157.095139 256.051025,142.526215 
	C260.678802,133.228943 267.800568,128.357193 278.351807,129.006836 
	C287.314056,129.558655 294.065643,135.376160 297.590698,145.846542 
z"/>
<path fill="#020202" opacity="1.000000" stroke="none" 
	d="
M135.345505,175.336456 
	C137.032089,172.079193 138.540863,169.150574 140.360428,165.618729 
	C148.309616,181.294083 156.055603,196.412704 163.561188,211.649734 
	C164.198303,212.943100 163.669113,215.245987 162.939850,216.710434 
	C155.311066,232.029922 147.599060,247.309082 139.769608,262.527130 
	C133.982025,273.776398 121.407616,278.070770 110.564537,272.706024 
	C99.633881,267.297943 95.433029,254.292068 101.186264,242.814957 
	C112.428001,220.388855 123.831284,198.043747 135.345505,175.336456 
z"/>
<path fill="#030303" opacity="1.000000" stroke="none" 
	d="
M228.497879,213.517395 
	C233.779068,223.899734 239.059830,233.874557 243.898056,244.059601 
	C249.163879,255.144775 244.179077,268.143097 233.182465,272.969635 
	C221.980881,277.886139 208.887604,273.180756 204.655121,261.678009 
	C202.940796,257.018860 202.305344,250.607452 204.146759,246.246597 
	C209.931946,232.546143 217.126968,219.441040 224.228836,205.197296 
	C225.875061,208.432297 227.088776,210.817383 228.497879,213.517395 
z"/>
<path fill="#020202" opacity="1.000000" stroke="none" 
	d="
M185.529099,133.370850 
	C194.796997,142.167755 196.354614,150.725327 190.779327,161.878098 
	C184.778427,173.882217 178.651962,185.823563 172.255814,198.431915 
	C165.434906,184.894913 158.774384,171.784073 152.253616,158.604080 
	C151.397461,156.873627 151.006287,154.812134 150.827621,152.864700 
	C149.989746,143.731903 153.454926,136.462708 161.354233,131.895691 
	C169.389603,127.250008 177.534012,127.795570 185.529099,133.370850 
z"/>
<path fill="#040404" opacity="1.000000" stroke="none" 
	d="
M184.808167,223.258148 
	C179.795410,216.675323 180.476303,210.936172 184.443527,204.068192 
	C191.551056,191.763748 197.493927,178.786560 204.196671,165.551285 
	C208.254562,173.510498 212.063049,180.800858 215.644867,188.200974 
	C216.178375,189.303192 216.095886,191.145920 215.537628,192.267365 
	C208.070282,207.268127 200.467484,222.201447 192.462936,238.011536 
	C189.729141,232.775543 187.335846,228.191696 184.808167,223.258148 
z"/>
</svg>